<svg width="16" height="16" viewBox="0 0 16 16" fill="none" xmlns="http://www.w3.org/2000/svg">
<g id="ep:arrow-down-bold">
<path id="Vector" d="M1.636 5.293C1.82353 5.10553 2.07784 5.00021 2.343 5.00021C2.60817 5.00021 2.86247 5.10553 3.05 5.293L8 10.243L12.95 5.293C13.1386 5.11084 13.3912 5.01005 13.6534 5.01233C13.9156 5.0146 14.1664 5.11977 14.3518 5.30518C14.5372 5.49059 14.6424 5.7414 14.6447 6.0036C14.647 6.2658 14.5462 6.5184 14.364 6.707L8.707 12.364C8.51947 12.5515 8.26517 12.6568 8 12.6568C7.73484 12.6568 7.48053 12.5515 7.293 12.364L1.636 6.707C1.44853 6.51947 1.34322 6.26516 1.34322 6C1.34322 5.73484 1.44853 5.48053 1.636 5.293Z" fill="#8693A3"/>
</g>
</svg>
