<svg width="40" height="40" viewBox="0 0 40 40" fill="none" xmlns="http://www.w3.org/2000/svg">
<g id="message">
<rect width="40" height="40" rx="20" fill="#F5F7FA"/>
<path id="Union" d="M15.8333 13.3333C13.9924 13.3333 12.5 14.8256 12.5 16.6664V21.0535C12.5 22.8943 13.9924 24.3866 15.8333 24.3866L15.8333 26.5832C15.8333 26.6528 15.9137 26.6917 15.9683 26.6486L18.8333 24.3866H24.1667C26.0076 24.3866 27.5 22.8943 27.5 21.0535V16.6664C27.5 14.8256 26.0076 13.3333 24.1667 13.3333H15.8333Z" stroke="#29364E" stroke-width="1.5" stroke-linecap="round"/>
<g id="Vector">
<path d="M17.5 19.1667C17.5 19.6269 17.1269 20 16.6667 20C16.2064 20 15.8333 19.6269 15.8333 19.1667C15.8333 18.7064 16.2064 18.3333 16.6667 18.3333C17.1269 18.3333 17.5 18.7064 17.5 19.1667Z" fill="#29364E"/>
<path d="M20.8333 19.1667C20.8333 19.6269 20.4602 20 20 20C19.5398 20 19.1667 19.6269 19.1667 19.1667C19.1667 18.7064 19.5398 18.3333 20 18.3333C20.4602 18.3333 20.8333 18.7064 20.8333 19.1667Z" fill="#29364E"/>
<path d="M24.1667 19.1667C24.1667 19.6269 23.7936 20 23.3333 20C22.8731 20 22.5 19.6269 22.5 19.1667C22.5 18.7064 22.8731 18.3333 23.3333 18.3333C23.7936 18.3333 24.1667 18.7064 24.1667 19.1667Z" fill="#29364E"/>
</g>
</g>
</svg>
