<svg width="40" height="40" viewBox="0 0 40 40" fill="none" xmlns="http://www.w3.org/2000/svg">
<g id="notifications">
<rect width="40" height="40" rx="20" fill="#F5F7FA"/>
<path id="Bell" fill-rule="evenodd" clip-rule="evenodd" d="M17.7791 13.9394V14.3778C15.5376 15.297 13.9716 18.3161 14.0284 20.9326L14.0284 22.3859C12.8809 23.8611 12.9485 26.0606 15.8112 26.0606H17.7791C17.7791 26.6634 18.014 27.2414 18.4321 27.6677C18.8503 28.0939 19.4174 28.3333 20.0087 28.3333C20.6 28.3333 21.1671 28.0939 21.5852 27.6677C22.0033 27.2414 22.2382 26.6634 22.2382 26.0606H24.2115C27.0688 26.0606 27.1103 23.8565 25.9629 22.3813L25.9948 20.9347C26.0526 18.3151 24.4835 15.2933 22.2382 14.3754V13.9394C22.2382 13.3366 22.0033 12.7585 21.5852 12.3323C21.1671 11.9061 20.6 11.6667 20.0087 11.6667C19.4174 11.6667 18.8503 11.9061 18.4321 12.3323C18.014 12.7585 17.7791 13.3366 17.7791 13.9394ZM20.7518 13.9394C20.7518 13.9548 20.7514 13.9701 20.7505 13.9854C20.5084 13.955 20.2619 13.9394 20.0117 13.9394C19.7594 13.9394 19.5108 13.9553 19.2669 13.9861C19.266 13.9706 19.2655 13.955 19.2655 13.9394C19.2655 13.7385 19.3438 13.5458 19.4832 13.4037C19.6225 13.2616 19.8116 13.1818 20.0087 13.1818C20.2058 13.1818 20.3948 13.2616 20.5342 13.4037C20.6735 13.5458 20.7518 13.7385 20.7518 13.9394ZM19.2655 26.0606C19.2655 26.2615 19.3438 26.4542 19.4832 26.5963C19.6225 26.7384 19.8116 26.8182 20.0087 26.8182C20.2058 26.8182 20.3948 26.7384 20.5342 26.5963C20.6735 26.4542 20.7518 26.2615 20.7518 26.0606H19.2655ZM24.2115 24.5454C24.8464 24.5454 25.189 23.7863 24.7757 23.2948C24.575 23.0561 24.468 22.7523 24.4749 22.4405L24.5089 20.9006C24.5656 18.3285 22.5356 15.4545 20.0117 15.4545C17.4883 15.4545 15.4586 18.3275 15.5144 20.8991L15.5479 22.4407C15.5547 22.7525 15.4477 23.0561 15.247 23.2948C14.8338 23.7863 15.1763 24.5454 15.8112 24.5454H24.2115Z" fill="#29364E"/>
</g>
</svg>
